<?xml version="1.0" encoding="UTF-8"?>
<svg version="1.1" xmlns="http://www.w3.org/2000/svg" width="772" height="444">
<path d="M0 0 C3.006818 1.33999498 4.99762609 2.79845291 7.25 5.1875 C10.29483921 8.32265223 13.46725389 11.20770711 16.77734375 14.05859375 C19.32976883 16.28804061 21.81887514 18.58001382 24.3125 20.875 C29.71922503 25.79356655 35.27002743 30.46317633 41 35 C41.62680664 35.49935059 42.25361328 35.99870117 42.89941406 36.51318359 C63.49227046 52.85477012 83.66300687 66.1330958 111 64 C131.97661864 60.19856038 150.20310811 45.49176604 166 32 C167.10783022 31.06611827 168.21591763 30.13254158 169.32421875 29.19921875 C176.37967327 23.22997151 183.2386345 17.0805871 190 10.78125 C193.93703954 7.11677474 197.95952565 3.54977074 202 0 C202.66 0.33 203.32 0.66 204 1 C203.5781543 1.62753174 203.15630859 2.25506348 202.72167969 2.90161133 C177.95156916 39.079045 177.95156916 39.079045 158 78 C161.84254382 79.28084794 165.6800157 79.57228184 169.6875 79.98046875 C171.50178553 80.1729452 173.31599132 80.36617444 175.13012695 80.56005859 C176.08682281 80.66179382 177.04351868 80.76352905 178.02920532 80.86834717 C264.74985559 90.18475713 356.25789897 113.15770522 426 168 C426.99515625 168.78117188 427.9903125 169.56234375 429.015625 170.3671875 C458.7674053 194.25361682 482.57393586 225.03587645 487.75 263.75 C487.85781062 265.1650144 487.93955974 266.58217213 488 268 C488.0515625 268.92167969 488.103125 269.84335937 488.15625 270.79296875 C488.79791365 292.31543695 482.40778637 313.43925318 470 331 C469.26136719 332.05316406 468.52273438 333.10632813 467.76171875 334.19140625 C458.16609327 347.4372811 446.32228648 358.57901689 433 368 C432.44828125 368.39606445 431.8965625 368.79212891 431.328125 369.20019531 C361.33193489 419.08853494 267.56043347 433.48924703 154 443 C153.13794952 443.04130035 152.27589905 443.08260071 151.38772583 443.12515259 C135.2758902 443.88309017 119.19141962 444.2019408 103.0625 444.1875 C101.32243179 444.18709213 101.32243179 444.18709213 99.54721069 444.18667603 C77.31746751 444.16297391 55.17963651 443.47565896 33 442 C31.88377258 441.9271579 31.88377258 441.9271579 30.74499512 441.85284424 C-52.16539292 436.39320505 -144.6201091 421.89792161 -247 353 C-247.474375 352.55817383 -247.94875 352.11634766 -248.4375 351.66113281 C-264.95253082 336.21054734 -276.2639963 317.89899387 -282 296 C-282.24621094 295.10410156 -282.49242187 294.20820313 -282.74609375 293.28515625 C-288.99545011 266.00348331 -280.22676928 237.23575367 -266 214 C-263.19063958 209.83243776 -260.16951389 205.89896441 -257 202 C-256.57315918 201.47164551 -256.14631836 200.94329102 -255.70654297 200.39892578 C-246.23069401 188.72648149 -235.95362191 178.17885635 -224 169 C-223.00250732 168.22849609 -223.00250732 168.22849609 -221.98486328 167.44140625 C-203.21047788 153.00534165 -183.12242655 141.63052557 -162 131 C-161.28376465 130.63455078 -160.5675293 130.26910156 -159.82958984 129.89257812 C-97.5573673 98.28669124 -23.34713477 83.14117505 46 79 C34.33043069 52.72356583 19.04469223 26.51286301 1.26855469 3.78637695 C0 2 0 2 0 0 Z M-219.64257812 244.20605469 C-231.03203629 256.09557425 -237.68810251 269.66985081 -237.46899414 286.28930664 C-236.75787339 303.84198334 -227.47418604 319.22404245 -216 332 C-215.12312729 333.00861878 -214.24684359 334.01774987 -213.37109375 335.02734375 C-207.46234551 341.74900856 -201.13239131 347.57826086 -194 353 C-193.46455566 353.41572266 -192.92911133 353.83144531 -192.37744141 354.25976562 C-181.81079987 362.44625978 -170.62428021 369.41829343 -159 376 C-158.13439453 376.49113281 -157.26878906 376.98226562 -156.37695312 377.48828125 C-102.77207896 407.51968895 -41.24372584 421.9926912 19.25 429.75 C20.02802979 429.85132233 20.80605957 429.95264465 21.60766602 430.05703735 C46.72897449 433.28651046 71.86438371 434.34219583 97.1652832 434.26074219 C100.72193181 434.24935961 104.27828056 434.25614368 107.83491898 434.26761246 C133.63768319 434.33824413 159.26617049 433.08925387 184.875 429.75 C186.11881439 429.59143021 186.11881439 429.59143021 187.38775635 429.42965698 C204.06544362 427.29257037 220.54530381 424.45301499 237 421 C238.14065918 420.76168457 239.28131836 420.52336914 240.45654297 420.27783203 C279.46539557 411.99874999 317.77682641 399.40561257 353.18212891 380.94140625 C354.97009846 380.01548487 356.77211315 379.11684853 358.57421875 378.21875 C373.607661 370.62148894 388.31425595 361.09123279 401 350 C402.21623047 348.94619141 402.21623047 348.94619141 403.45703125 347.87109375 C406.00824777 345.6177151 408.5109689 343.32179932 411 341 C411.825 340.24074219 412.65 339.48148438 413.5 338.69921875 C428.83135883 324.06256212 440.60706855 305.11716865 441.4375 283.5 C440.90550806 265.07977908 430.50286567 251.43433335 418 239 C417.25878906 238.25878906 416.51757812 237.51757812 415.75390625 236.75390625 C356.71303974 181.28450993 251.53530865 169.03470802 159 163 C167.60944454 189.67386235 187.10970557 214.10871263 203 237 C198.75556751 233.90359893 194.62451702 230.88927802 191 227.0625 C187.92964549 223.91523873 184.78004715 220.96551109 181.4453125 218.1015625 C179.49044571 216.42150126 177.55094701 214.72756971 175.6171875 213.0234375 C153.74030763 193.79856072 128.26404094 171.43343033 97.3984375 172.59765625 C72.54114451 174.35286766 51.57184824 193.04107184 33.61083984 208.61132812 C31.96571715 210.02955454 30.30719034 211.43051361 28.64453125 212.828125 C19.46403181 220.57140502 10.69814145 228.72092294 2 237 C3.00155064 233.99534809 4.21699244 231.97521579 5.95703125 229.34375 C6.56909424 228.41328857 7.18115723 227.48282715 7.81176758 226.52416992 C8.80213013 225.02720581 8.80213013 225.02720581 9.8125 223.5 C11.1884125 221.40294217 12.56340019 219.30527729 13.9375 217.20703125 C14.62457031 216.15854004 15.31164062 215.11004883 16.01953125 214.02978516 C26.71951074 197.66061042 37.42594975 181.09799375 45 163 C-38.3500838 161.8826541 -156.43894788 182.99510355 -219.64257812 244.20605469 Z " fill="#F4AA19" transform="translate(284,0)"/>
</svg>
